<svg width="343" height="382" viewBox="0 0 343 382" fill="none" xmlns="http://www.w3.org/2000/svg">
<path d="M178.171 381.05C155.26 381.05 134.511 360.725 119.748 323.822C106.125 289.764 98.6238 244.696 98.6238 196.914C98.6238 149.133 106.125 104.065 119.748 70.0067C134.511 33.1035 155.259 12.7788 178.171 12.7788C201.084 12.7788 221.832 33.1035 236.594 70.0067C250.218 104.065 257.719 149.133 257.719 196.914C257.719 244.696 250.218 289.764 236.594 323.822C221.833 360.725 201.082 381.05 178.171 381.05ZM178.171 32.4199C149.837 32.4199 118.266 99.9759 118.266 196.914C118.266 293.853 149.837 361.409 178.171 361.409C206.506 361.409 238.077 293.853 238.077 196.914C238.077 99.9759 206.506 32.4199 178.171 32.4199Z" fill="white"/>
<path d="M236.595 70.0067C221.834 33.1035 201.084 12.7799 178.174 12.7788V32.4199C206.506 32.4222 238.077 99.9759 238.077 196.914C238.077 293.853 206.506 361.407 178.174 361.409V381.05C201.085 381.05 221.834 360.725 236.595 323.822C250.218 289.764 257.719 244.696 257.719 196.914C257.719 149.133 250.218 104.065 236.595 70.0067Z" fill="white"/>
<path d="M282.381 312.763C275.088 312.763 267.236 312.169 258.865 310.962C222.56 305.731 179.776 289.693 138.398 265.803C97.0196 241.911 61.7388 212.88 39.0568 184.054C14.4755 152.819 7.24982 124.687 18.707 104.845C30.1642 85.0036 58.1407 77.1969 97.4776 82.8651C133.783 88.0958 176.567 104.134 217.945 128.024C259.323 151.916 294.604 180.948 317.286 209.773C341.867 241.008 349.093 269.14 337.636 288.982C328.619 304.602 309.361 312.763 282.381 312.763ZM73.5856 100.668C54.4037 100.668 41.0085 105.496 35.7151 114.666C28.65 126.901 35.4952 147.768 54.4926 171.91C75.6661 198.818 108.953 226.123 148.22 248.795C187.487 271.467 227.777 286.642 261.668 291.523C292.075 295.907 313.566 291.399 320.631 279.162C327.696 266.928 320.851 246.061 301.854 221.918C280.68 195.009 247.393 167.705 208.126 145.033C168.858 122.361 128.569 107.187 94.6782 102.306C87.0583 101.207 79.999 100.668 73.5856 100.668Z" fill="white"/>
<path d="M317.286 209.773C294.604 180.948 259.323 151.916 217.945 128.024C204.744 120.403 191.404 113.59 178.174 107.664V129.283C188.144 134.023 198.167 139.284 208.125 145.036C247.391 167.707 280.677 195.01 301.852 221.921C320.85 246.063 327.693 266.928 320.63 279.164C313.565 291.401 292.076 295.908 261.667 291.525C236.373 287.882 207.512 278.499 178.175 264.552V286.171C206.417 298.824 234.144 307.408 258.866 310.968C267.237 312.173 275.089 312.769 282.382 312.769C309.362 312.769 328.619 304.608 337.639 288.988C349.093 269.138 341.866 241.009 317.286 209.773Z" fill="white"/>
<path d="M73.9616 312.764C46.9809 312.764 27.7249 304.605 18.7047 288.982C7.24753 269.138 14.4755 241.009 39.0545 209.773C61.7365 180.948 97.0173 151.916 138.396 128.024C179.774 104.134 222.558 88.0959 258.863 82.8652C298.202 77.2027 326.177 85.0026 337.633 104.845C349.091 124.689 341.863 152.818 317.284 184.055C294.602 212.88 259.321 241.911 217.942 265.803C176.564 289.693 133.78 305.732 97.4753 310.962C89.108 312.169 81.2522 312.764 73.9616 312.764ZM282.757 100.668C276.343 100.668 269.287 101.206 261.667 102.307C227.776 107.188 187.487 122.363 148.219 145.034C108.952 167.706 75.6672 195.009 54.4914 221.918C35.4941 246.061 28.6512 266.926 35.7139 279.162C42.779 291.399 64.2726 295.908 94.6771 291.523C128.568 286.642 168.857 271.467 208.125 248.795C247.392 226.124 280.677 198.82 301.852 171.91C320.85 147.768 327.693 126.903 320.63 114.666C315.333 105.497 301.936 100.668 282.757 100.668Z" fill="white"/>
<path d="M337.636 104.847C326.178 85.0015 298.204 77.2039 258.865 82.8664C234.143 86.4268 206.413 95.0129 178.174 107.663V129.282C207.512 115.333 236.372 105.952 261.666 102.309C269.287 101.21 276.344 100.671 282.756 100.671C301.936 100.671 315.333 105.498 320.626 114.669C327.691 126.903 320.846 147.77 301.849 171.913C280.675 198.82 247.388 226.126 208.121 248.798C198.163 254.547 188.138 259.811 178.17 264.55V286.169C191.4 280.241 204.743 273.43 217.941 265.809C259.32 241.917 294.6 212.886 317.282 184.06C341.866 152.82 349.093 124.69 337.636 104.847Z" fill="white"/>
<path d="M172.925 249.201C171.286 249.201 169.623 248.827 168.062 248.038C162.737 245.349 160.6 238.85 163.289 233.525L176.327 207.716H162.458C158.706 207.716 155.222 205.77 153.255 202.575C151.289 199.379 151.122 195.393 152.813 192.045L173.764 150.563C176.453 145.236 182.952 143.103 188.277 145.79C193.601 148.479 195.739 154.978 193.05 160.303L180.014 186.111H193.882C197.634 186.111 201.118 188.057 203.084 191.253C205.051 194.449 205.217 198.434 203.526 201.783L182.575 243.265C180.673 247.031 176.871 249.201 172.925 249.201Z" fill="white"/>
<path d="M203.086 191.254C201.12 188.058 197.638 186.112 193.884 186.112H180.016L193.052 160.302C195.741 154.976 193.604 148.478 188.28 145.789C184.964 144.115 181.195 144.312 178.172 145.984V247.821C179.999 246.807 181.562 245.271 182.574 243.266L203.525 201.784C205.219 198.434 205.052 194.449 203.086 191.254Z" fill="white"/>
<path d="M165.066 368.271C142.155 368.271 121.405 347.946 106.643 311.043C93.0196 276.985 85.5182 231.917 85.5182 184.136C85.5182 136.354 93.0196 91.2862 106.643 57.2279C121.405 20.3247 142.154 0 165.066 0C187.978 0 208.726 20.3247 223.489 57.2279C237.112 91.2862 244.613 136.354 244.613 184.136C244.613 231.917 237.112 276.985 223.489 311.043C208.728 347.946 187.977 368.271 165.066 368.271ZM165.066 19.6411C136.732 19.6411 105.16 87.1971 105.16 184.136C105.16 281.074 136.732 348.63 165.066 348.63C193.4 348.63 224.971 281.074 224.971 184.136C224.971 87.1971 193.4 19.6411 165.066 19.6411Z" fill="#F4A200"/>
<path d="M223.489 57.2279C208.729 20.3247 187.978 0.00113934 165.068 0V19.6411C193.4 19.6434 224.971 87.1971 224.971 184.136C224.971 281.074 193.4 348.628 165.068 348.63V368.271C187.979 368.271 208.729 347.946 223.489 311.043C237.112 276.985 244.613 231.917 244.613 184.136C244.613 136.354 237.112 91.2862 223.489 57.2279Z" fill="#F4A200"/>
<path d="M269.276 299.985C261.983 299.985 254.13 299.39 245.76 298.184C209.454 292.953 166.67 276.914 125.293 253.025C83.914 229.133 48.6332 200.101 25.9512 171.276C1.36992 140.041 -5.85577 111.908 5.60143 92.0667C17.0586 72.2251 45.0351 64.4183 84.372 70.0865C120.677 75.3173 163.462 91.3557 204.839 115.245C246.218 139.137 281.498 168.169 304.18 196.994C328.762 228.229 335.987 256.362 324.53 276.203C315.513 291.824 296.255 299.985 269.276 299.985ZM60.48 87.8899C41.2981 87.8899 27.9029 92.7173 22.6095 101.888C15.5445 114.122 22.3896 134.989 41.387 159.132C62.5605 186.039 95.8474 213.345 135.115 236.017C174.381 258.688 214.672 273.863 248.562 278.744C278.969 283.128 300.46 278.62 307.525 266.383C314.591 254.149 307.745 233.282 288.748 209.14C267.575 182.231 234.288 154.926 195.02 132.255C155.753 109.583 115.463 94.408 81.5726 89.5271C73.9527 88.4288 66.8934 87.8899 60.48 87.8899Z" fill="#F4A200"/>
<path d="M304.18 196.994C281.498 168.169 246.218 139.137 204.839 115.245C191.639 107.624 178.298 100.811 165.068 94.8853V116.504C175.038 121.244 185.061 126.505 195.019 132.257C234.285 154.928 267.571 182.232 288.747 209.142C307.744 233.284 314.587 254.149 307.524 266.386C300.459 278.622 278.97 283.129 248.561 278.746C223.268 275.103 194.406 265.72 165.069 251.774V273.393C193.311 286.045 221.038 294.629 245.761 298.189C254.131 299.395 261.984 299.99 269.277 299.99C296.256 299.99 315.513 291.829 324.534 276.209C335.987 256.359 328.761 228.23 304.18 196.994Z" fill="#F4A200"/>
<path d="M60.856 299.985C33.8753 299.985 14.6193 291.826 5.59915 276.203C-5.85806 256.359 1.36992 228.23 25.9489 196.994C48.6309 168.169 83.9117 139.137 125.29 115.245C166.669 91.3556 209.452 75.3171 245.757 70.0864C285.096 64.4238 313.072 72.2238 324.528 92.0665C335.985 111.91 328.757 140.04 304.178 171.276C281.496 200.101 246.215 229.133 204.837 253.025C163.458 276.914 120.675 292.953 84.3697 298.183C76.0024 299.39 68.1466 299.985 60.856 299.985ZM269.652 87.8897C263.237 87.8897 256.181 88.4275 248.561 89.5281C214.67 94.409 174.381 109.584 135.114 132.256C95.8463 154.927 62.5616 182.231 41.3858 209.139C22.3885 233.282 15.5456 254.147 22.6084 266.383C29.6734 278.62 51.1671 283.129 81.5715 278.744C115.462 273.863 155.752 258.688 195.019 236.016C234.286 213.345 267.571 186.042 288.747 159.132C307.744 134.989 314.587 114.124 307.524 101.888C302.228 92.7182 288.83 87.8897 269.652 87.8897Z" fill="#F4A200"/>
<path d="M324.53 92.0677C313.073 72.2227 285.099 64.4251 245.76 70.0876C221.037 73.648 193.308 82.2341 165.068 94.8842V116.503C194.406 102.554 223.267 93.1729 248.56 89.5304C256.181 88.431 263.238 87.8921 269.65 87.8921C288.83 87.8921 302.227 92.7194 307.521 101.89C314.586 114.124 307.741 134.991 288.743 159.134C267.57 186.042 234.283 213.347 195.016 236.019C185.058 241.768 175.033 247.032 165.065 251.771V273.39C178.295 267.462 191.637 260.651 204.836 253.03C246.214 229.138 281.495 200.107 304.177 171.282C328.76 140.041 335.987 111.912 324.53 92.0677Z" fill="#F4A200"/>
<path d="M159.819 236.422C158.181 236.422 156.517 236.049 154.956 235.259C149.631 232.57 147.495 226.071 150.184 220.746L163.221 194.938H149.352C145.6 194.938 142.116 192.992 140.149 189.796C138.183 186.6 138.017 182.615 139.707 179.266L160.659 137.784C163.348 132.458 169.846 130.325 175.172 133.011C180.496 135.7 182.633 142.199 179.944 147.524L166.908 173.333H180.776C184.528 173.333 188.012 175.279 189.979 178.474C191.945 181.67 192.111 185.656 190.421 189.004L169.469 230.486C167.568 234.252 163.766 236.422 159.819 236.422Z" fill="#F4A200"/>
<path d="M189.981 178.475C188.014 175.279 184.532 173.333 180.778 173.333H166.91L179.947 147.523C182.636 142.198 180.498 135.699 175.174 133.01C171.859 131.336 168.09 131.533 165.067 133.205V235.042C166.893 234.028 168.456 232.493 169.468 230.487L190.419 189.005C192.114 185.655 191.946 181.67 189.981 178.475Z" fill="#F4A200"/>
</svg>
