<svg width="502" height="525" viewBox="0 0 502 525" fill="none" xmlns="http://www.w3.org/2000/svg">
<path d="M451.047 237.687H501.023L256.512 13L12 237.687H61.976V507.044H23.069V525.001H489.955V507.044H451.048L451.047 237.687ZM58.08 219.73L84.136 195.787H346.297V177.83H103.677L256.512 37.387L454.943 219.729L58.08 219.73ZM79.933 477.114H166.726V459.157H79.933V237.686H433.09V459.157H346.297V477.114H433.09V507.043H325.347V435.941L367.247 394.041V368.314C384.384 364.249 397.176 348.827 397.176 330.464C397.176 309.011 379.722 291.557 358.269 291.557C336.816 291.557 319.362 309.011 319.362 330.464C319.362 348.827 332.153 364.249 349.291 368.314V386.603L307.391 428.503V507.043H265.491V392.41C285.957 388.239 301.405 370.101 301.405 348.421C301.405 323.666 281.267 303.528 256.512 303.528C231.757 303.528 211.619 323.666 211.619 348.421C211.619 370.101 227.067 388.239 247.533 392.41V507.042H205.633V428.502L163.733 386.602V368.313C180.87 364.248 193.662 348.826 193.662 330.463C193.662 309.01 176.208 291.556 154.755 291.556C133.302 291.556 115.848 309.01 115.848 330.463C115.848 348.826 128.639 364.248 145.777 368.313V394.04L187.677 435.94V507.042H79.933V477.114ZM358.269 351.414C346.718 351.414 337.319 342.015 337.319 330.464C337.319 318.913 346.718 309.514 358.269 309.514C369.82 309.514 379.219 318.913 379.219 330.464C379.219 342.017 369.82 351.414 358.269 351.414ZM256.512 375.357C241.659 375.357 229.576 363.274 229.576 348.421C229.576 333.568 241.659 321.485 256.512 321.485C271.365 321.485 283.448 333.568 283.448 348.421C283.448 363.274 271.363 375.357 256.512 375.357ZM154.754 351.414C143.203 351.414 133.804 342.015 133.804 330.464C133.804 318.913 143.203 309.514 154.754 309.514C166.305 309.514 175.704 318.913 175.704 330.464C175.704 342.017 166.306 351.414 154.754 351.414Z" fill="white"/>
<path d="M268.48 339.449H244.537V357.406H268.48V339.449Z" fill="white"/>
<path d="M124.822 423.249H100.879V441.206H124.822V423.249Z" fill="white"/>
<path d="M412.137 423.249H388.194V441.206H412.137V423.249Z" fill="white"/>
<path d="M268.48 255.649H244.537V273.606H268.48V255.649Z" fill="white"/>
<path d="M304.394 255.649H280.451V273.606H304.394V255.649Z" fill="white"/>
<path d="M232.565 255.649H208.622V273.606H232.565V255.649Z" fill="white"/>
<path d="M256.512 82.0581C235.059 82.0581 217.605 99.5121 217.605 120.965C217.605 142.418 235.059 159.872 256.512 159.872C277.965 159.872 295.419 142.418 295.419 120.965C295.419 99.5121 277.964 82.0581 256.512 82.0581ZM256.512 141.916C244.961 141.916 235.562 132.517 235.562 120.966C235.562 109.415 244.961 100.016 256.512 100.016C268.063 100.016 277.462 109.415 277.462 120.966C277.462 132.517 268.063 141.916 256.512 141.916Z" fill="white"/>
<path d="M439.536 224.687H489.512L245.001 0L0.489014 224.687H50.465V494.044H11.558V512.001H478.444V494.044H439.537L439.536 224.687ZM46.569 206.73L72.625 182.787H334.786V164.83H92.166L245.001 24.387L443.432 206.729L46.569 206.73ZM68.422 464.114H155.215V446.157H68.422V224.686H421.579V446.157H334.786V464.114H421.579V494.043H313.836V422.941L355.736 381.041V355.314C372.873 351.249 385.665 335.827 385.665 317.464C385.665 296.011 368.211 278.557 346.758 278.557C325.305 278.557 307.851 296.011 307.851 317.464C307.851 335.827 320.642 351.249 337.78 355.314V373.603L295.88 415.503V494.043H253.98V379.41C274.446 375.239 289.894 357.101 289.894 335.421C289.894 310.666 269.756 290.528 245.001 290.528C220.246 290.528 200.108 310.666 200.108 335.421C200.108 357.101 215.556 375.239 236.022 379.41V494.042H194.122V415.502L152.222 373.602V355.313C169.359 351.248 182.151 335.826 182.151 317.463C182.151 296.01 164.697 278.556 143.244 278.556C121.791 278.556 104.337 296.01 104.337 317.463C104.337 335.826 117.128 351.248 134.266 355.313V381.04L176.166 422.94V494.042H68.422V464.114ZM346.758 338.414C335.207 338.414 325.808 329.015 325.808 317.464C325.808 305.913 335.207 296.514 346.758 296.514C358.309 296.514 367.708 305.913 367.708 317.464C367.708 329.017 358.309 338.414 346.758 338.414ZM245.001 362.357C230.148 362.357 218.065 350.274 218.065 335.421C218.065 320.568 230.148 308.485 245.001 308.485C259.854 308.485 271.937 320.568 271.937 335.421C271.937 350.274 259.852 362.357 245.001 362.357ZM143.243 338.414C131.692 338.414 122.293 329.015 122.293 317.464C122.293 305.913 131.692 296.514 143.243 296.514C154.794 296.514 164.193 305.913 164.193 317.464C164.193 329.017 154.795 338.414 143.243 338.414Z" fill="#F4A200"/>
<path d="M256.969 326.449H233.026V344.406H256.969V326.449Z" fill="#F4A200"/>
<path d="M113.311 410.249H89.3679V428.206H113.311V410.249Z" fill="#F4A200"/>
<path d="M400.626 410.249H376.683V428.206H400.626V410.249Z" fill="#F4A200"/>
<path d="M256.969 242.649H233.026V260.606H256.969V242.649Z" fill="#F4A200"/>
<path d="M292.883 242.649H268.94V260.606H292.883V242.649Z" fill="#F4A200"/>
<path d="M221.054 242.649H197.111V260.606H221.054V242.649Z" fill="#F4A200"/>
<path d="M245.001 69.0581C223.548 69.0581 206.094 86.5121 206.094 107.965C206.094 129.418 223.548 146.872 245.001 146.872C266.454 146.872 283.908 129.418 283.908 107.965C283.908 86.5121 266.453 69.0581 245.001 69.0581ZM245.001 128.916C233.45 128.916 224.051 119.517 224.051 107.966C224.051 96.4151 233.45 87.0161 245.001 87.0161C256.552 87.0161 265.951 96.4151 265.951 107.966C265.951 119.517 256.552 128.916 245.001 128.916Z" fill="#F4A200"/>
</svg>
