<svg width="816" height="549" viewBox="0 0 816 549" fill="none" xmlns="http://www.w3.org/2000/svg">
<path d="M214 401.875C173.375 401.875 140.562 434.688 140.562 475.312C140.562 515.938 173.375 548.75 214 548.75C254.625 548.75 287.438 515.938 287.438 475.312C287.438 434.688 254.625 401.875 214 401.875ZM214 503.125C198.687 503.125 185.875 490.312 185.875 475C185.875 459.687 198.687 446.875 214 446.875C229.313 446.875 242.125 459.687 242.125 475C242.125 490.625 229.625 503.125 214 503.125ZM675.875 398.75C635.25 398.75 602.438 431.562 602.438 472.188C602.438 512.812 635.25 545.625 675.875 545.625C716.5 545.625 749.313 512.812 749.313 472.188C749.313 431.562 716.5 398.75 675.875 398.75ZM675.875 500C660.563 500 647.75 487.187 647.75 471.875C647.75 456.562 660.563 443.75 675.875 443.75C691.188 443.75 704 456.562 704 471.875C704 487.5 691.5 500 675.875 500ZM15.5625 433.438C15.5625 447.813 27.125 459.063 41.1875 459.063H111.812C114.625 459.063 117.125 456.875 117.75 454.375C125.875 408.438 165.875 376.563 214 376.563C262.125 376.563 302.438 408.438 310.25 454.375C310.875 457.188 313.062 459.063 316.187 459.063H326.5H423.062V345.625H15.5625V433.438ZM809.625 406.562H794V337.812C794 314.375 774.937 295.313 751.187 295.313H675.25C673.688 295.313 672.125 294.375 670.875 293.438L552.125 177.812C546.812 172.5 539.313 169.375 531.5 169.062H445.563V459.063H573.375C576.187 459.063 578.687 456.875 579.312 454.375C587.437 408.438 627.437 373.438 675.562 373.438C723.687 373.438 764 408.438 771.812 454.375C772.438 457.188 774.625 459.063 777.75 459.063H787.75C803.063 459.063 814.938 446.875 814.938 431.875V412.188C815.563 409.375 812.75 406.562 809.625 406.562ZM614.313 295.625H484.937C481.812 295.625 479 292.812 479 289.687V207.187C479 204.062 481.812 201.25 484.937 201.25H528.375C529.938 201.25 531.5 202.188 533.063 203.125L619 285.312C621.813 289.375 619.313 295.625 614.313 295.625Z" fill="white"/>
<path d="M197.75 303.438H70.5625V176.25H119.625V216.875H148.687V176.25H197.75V303.438ZM363.688 303.438H236.813V176.25H285.875V216.875H314.938V176.25H364V303.438H363.688ZM281.812 137.188H154.625V10H203.687V50.625H232.75V10H281.812V137.188Z" fill="white"/>
<path d="M198.438 391.875C157.812 391.875 125 424.688 125 465.312C125 505.938 157.812 538.75 198.438 538.75C239.062 538.75 271.875 505.938 271.875 465.312C271.875 424.688 239.062 391.875 198.438 391.875ZM198.438 493.125C183.125 493.125 170.312 480.312 170.312 465C170.312 449.687 183.125 436.875 198.438 436.875C213.75 436.875 226.562 449.687 226.562 465C226.562 480.625 214.062 493.125 198.438 493.125ZM660.313 388.75C619.688 388.75 586.875 421.562 586.875 462.188C586.875 502.812 619.688 535.625 660.313 535.625C700.938 535.625 733.75 502.812 733.75 462.188C733.75 421.562 700.938 388.75 660.313 388.75ZM660.313 490C645 490 632.188 477.187 632.188 461.875C632.188 446.562 645 433.75 660.313 433.75C675.625 433.75 688.438 446.562 688.438 461.875C688.438 477.5 675.938 490 660.313 490ZM0 423.438C0 437.813 11.5625 449.063 25.625 449.063H96.25C99.0625 449.063 101.563 446.875 102.188 444.375C110.313 398.438 150.313 366.563 198.438 366.563C246.562 366.563 286.875 398.438 294.688 444.375C295.313 447.188 297.5 449.063 300.625 449.063H310.938H407.5V335.625H0V423.438ZM794.063 396.562H778.438V327.812C778.438 304.375 759.375 285.313 735.625 285.313H659.688C658.125 285.313 656.562 284.375 655.312 283.438L536.562 167.812C531.25 162.5 523.75 159.375 515.938 159.062H430V449.063H557.812C560.625 449.063 563.125 446.875 563.75 444.375C571.875 398.438 611.875 363.438 660 363.438C708.125 363.438 748.438 398.438 756.25 444.375C756.875 447.188 759.062 449.063 762.187 449.063H772.188C787.5 449.063 799.375 436.875 799.375 421.875V402.188C800 399.375 797.188 396.562 794.063 396.562ZM598.75 285.625H469.375C466.25 285.625 463.438 282.812 463.438 279.687V197.187C463.438 194.062 466.25 191.25 469.375 191.25H512.813C514.375 191.25 515.938 192.188 517.5 193.125L603.438 275.312C606.25 279.375 603.75 285.625 598.75 285.625Z" fill="#F4A200"/>
<path d="M182.187 293.438H55V166.25H104.062V206.875H133.125V166.25H182.187V293.438ZM348.125 293.438H221.25V166.25H270.313V206.875H299.375V166.25H348.438V293.438H348.125ZM266.25 127.188H139.062V0H188.125V40.625H217.188V0H266.25V127.188Z" fill="#F4A200"/>
</svg>
